<svg version="1.1" id="Layer_1" xmlns="http://www.w3.org/2000/svg" xmlns:xlink="http://www.w3.org/1999/xlink" x="0px" y="0px"
	 width="100%" viewBox="0 0 600 600" enable-background="new 0 0 600 600" xml:space="preserve">
<path fill="#FFFFFF" opacity="1.000000" stroke="none" 
	d="
M394.000000,601.000000 
	C262.666656,601.000000 131.833328,601.000000 1.000000,601.000000 
	C1.000000,401.000000 1.000000,201.000000 1.000000,1.000000 
	C201.000000,1.000000 401.000000,1.000000 601.000000,1.000000 
	C601.000000,201.000000 601.000000,401.000000 601.000000,601.000000 
	C532.166687,601.000000 463.333344,601.000000 394.000000,601.000000 
M223.754410,153.698639 
	C223.754410,153.698639 223.648865,153.609116 223.100281,153.740219 
	C222.729279,154.138916 222.358276,154.537613 221.961517,154.957794 
	C221.961517,154.957794 221.935394,154.978851 221.298279,155.160202 
	C218.393173,158.281174 215.488068,161.402145 212.581680,164.613159 
	C212.581680,164.613159 212.494003,164.633667 212.064224,164.807236 
	C211.798721,165.003448 211.647186,165.265594 211.627396,165.716354 
	C211.627396,165.716354 211.533600,165.635284 211.001465,165.935898 
	C210.343887,166.957474 209.686310,167.979050 208.990646,169.002609 
	C208.990646,169.002609 209.006622,169.037262 208.426270,169.365662 
	C204.832230,177.256073 201.238190,185.146469 197.272888,193.647232 
	C197.227448,194.118347 197.182007,194.589478 196.749222,195.686935 
	C191.548203,214.153793 192.320740,232.194580 201.311493,249.371078 
	C207.766403,261.702881 217.494354,271.202484 229.247574,279.629791 
	C239.459885,285.257385 249.672180,290.884979 260.380432,296.930084 
	C266.253357,299.288757 272.126251,301.647430 278.507019,304.501526 
	C286.992340,307.715790 295.477631,310.930084 304.416504,314.652832 
	C307.874878,316.154419 311.333252,317.656006 315.188019,319.710724 
	C318.266571,321.480621 321.345093,323.250519 324.764343,325.615204 
	C325.173340,325.769501 325.582367,325.923767 325.959473,326.013306 
	C325.959473,326.013306 325.908234,326.064087 326.082886,326.734863 
	C331.804413,332.827240 332.027893,334.899719 327.815552,342.660492 
	C327.815552,342.660492 327.860504,342.714325 327.255402,342.775574 
	C326.803345,343.163879 326.351288,343.552185 325.971924,343.969543 
	C325.971924,343.969543 325.973724,343.891266 325.368530,343.939636 
	C324.888031,344.279785 324.407562,344.619965 323.986420,344.996674 
	C323.986420,344.996674 323.976074,344.927795 323.480774,344.903473 
	C323.480774,344.903473 323.026825,345.103241 322.320862,345.173157 
	C321.211975,345.456055 320.103088,345.738953 318.063507,345.921204 
	C314.623993,345.963348 311.166321,346.249451 307.748962,345.994659 
	C301.496582,345.528534 295.268036,344.742737 288.299927,343.929382 
	C286.191345,343.264923 284.082794,342.600464 281.450317,341.644440 
	C281.058807,341.587128 280.667267,341.529846 279.706329,341.131378 
	C278.842072,340.935211 277.977844,340.739044 276.467590,340.126221 
	C271.346527,338.726410 266.225464,337.326599 260.712616,335.300873 
	C250.877792,331.094360 240.923843,327.139496 231.262726,322.566040 
	C226.984894,320.540955 225.542282,321.863678 224.273041,326.205353 
	C213.178757,347.919006 202.084457,369.632660 190.949249,391.426361 
	C191.980972,392.123077 192.470200,392.613434 193.059814,392.828308 
	C211.152649,399.422424 229.034164,406.712280 247.424088,412.339935 
	C263.116913,417.142303 279.397552,420.017792 296.748230,420.274231 
	C299.526154,420.266968 302.304047,420.259705 305.879059,420.590088 
	C307.016449,420.497467 308.153839,420.404877 310.022003,420.648987 
	C312.320160,420.422943 314.618347,420.196899 317.808075,420.089081 
	C322.571777,419.415131 327.335510,418.741180 332.921204,418.119202 
	C339.641907,416.248474 346.362579,414.377747 353.825256,412.314270 
	C356.533447,410.995789 359.241638,409.677277 362.328827,408.483368 
	C362.635864,408.398315 362.777222,408.196777 362.872406,407.889709 
	C362.872406,407.889709 362.921906,407.780457 363.623138,407.814575 
	C369.660431,403.718811 376.251495,400.241638 381.638550,395.419434 
	C404.156708,375.262177 412.468445,349.322296 410.756317,319.782043 
	C410.485321,315.106140 408.594208,310.524170 407.294861,305.126465 
	C404.204834,299.075806 401.114807,293.025146 397.812378,286.328827 
	C390.936798,276.396484 382.282349,268.357300 371.564606,261.537048 
	C367.365845,259.071442 363.167114,256.605835 358.341034,253.849396 
	C353.552490,251.600098 348.763947,249.350784 343.255798,246.918900 
	C335.809235,243.687347 328.362671,240.455780 320.155060,236.996078 
	C319.061371,236.714981 317.931152,236.531372 316.879639,236.137589 
	C306.927338,232.410553 296.988373,228.647797 286.629944,224.434814 
	C285.524078,223.867416 284.418213,223.300018 283.105042,222.152420 
	C282.122620,221.428116 281.140167,220.703812 280.034698,219.414597 
	C279.678589,218.991089 279.322510,218.567566 278.848206,217.503860 
	C278.743103,217.314026 278.637970,217.124176 278.610718,216.263168 
	C279.087433,213.848389 279.564178,211.433624 280.003418,208.994934 
	C280.003418,208.994934 280.010681,209.038742 280.504089,208.873138 
	C280.684265,208.587067 280.864441,208.300995 280.996033,208.005341 
	C280.996033,208.005341 281.028107,208.043121 281.700684,207.756897 
	C285.419525,206.587250 289.138397,205.417587 293.676514,204.389160 
	C296.141754,204.486450 298.607025,204.583740 301.679535,204.919907 
	C302.111786,204.909470 302.544006,204.899017 303.738403,205.085770 
	C305.495758,205.337845 307.253143,205.589920 309.801819,206.022476 
	C314.845551,207.070099 319.889282,208.117722 325.357391,209.757156 
	C326.562103,209.857330 327.766785,209.957520 329.544617,210.509766 
	C340.703491,214.304337 351.862335,218.098907 363.495361,222.106201 
	C363.659485,222.050797 363.823608,221.995407 364.511230,222.006790 
	C364.682312,221.965729 364.853363,221.924683 365.557892,221.919464 
	C365.754730,221.634369 365.951538,221.349274 366.061615,221.075043 
	C366.061615,221.075043 366.099701,221.153717 366.758453,220.959671 
	C368.765778,217.286911 370.773102,213.614136 373.197144,209.380722 
	C374.828369,205.648453 376.459595,201.916183 378.750610,197.808624 
	C378.918854,196.834625 378.815308,195.691177 379.299652,194.914200 
	C382.387543,189.960587 385.880035,185.241089 388.716949,180.153275 
	C393.293274,171.946030 397.465790,163.513657 401.892853,155.015137 
	C400.370239,154.227951 399.365540,153.672241 398.331024,153.179077 
	C377.029083,143.024109 354.581177,136.637314 330.680328,132.354233 
	C325.940247,132.158173 321.200134,131.962128 316.289642,130.984604 
	C299.046997,128.499390 282.040833,129.973770 264.365234,133.944321 
	C259.250183,135.660843 254.135132,137.377365 248.301682,139.028824 
	C247.515625,139.490067 246.729568,139.951309 245.291656,140.492508 
	C243.832718,141.334351 242.373795,142.176193 241.019333,143.014923 
	C241.019333,143.014923 241.023849,142.910492 240.303162,142.898712 
	C239.176682,143.589264 238.050186,144.279831 236.993011,144.984695 
	C236.993011,144.984695 236.985870,144.914291 236.233597,144.843140 
	C233.371857,146.707611 230.510132,148.572083 227.638214,150.529083 
	C227.638214,150.529083 227.546066,150.542252 226.958267,150.717392 
	C226.222397,151.402008 225.486542,152.086639 225.010666,152.832596 
	C225.010666,152.832596 224.758698,152.742569 224.260086,152.843857 
	C224.060272,153.103729 223.860458,153.363586 223.754410,153.698639 
M274.680603,485.000000 
	C261.426300,486.323669 248.181992,487.761139 234.913620,488.924377 
	C227.983170,489.531982 220.895828,488.994904 214.086746,490.173279 
	C206.117264,491.552460 197.606598,492.016022 191.158936,498.172607 
	C189.885666,499.388397 188.084259,500.070679 186.483414,500.917725 
	C185.147598,501.624542 183.748856,502.212433 182.377960,502.852936 
	C183.816193,503.601318 185.290359,504.289337 186.681320,505.117096 
	C187.801666,505.783875 188.779694,506.688507 189.895142,507.365143 
	C191.871704,508.564148 193.778717,510.195435 195.938446,510.713440 
	C201.707626,512.097168 207.614227,512.896484 213.427536,514.112915 
	C215.965103,514.643921 218.386063,515.709595 220.900955,516.378418 
	C223.034180,516.945801 225.213623,517.554504 227.396088,517.660034 
	C229.508575,517.762329 231.683777,516.878174 233.774673,517.064453 
	C243.306702,517.913574 252.804443,519.635864 262.340912,519.846130 
	C282.735992,520.295654 303.157013,520.397583 323.549225,519.898071 
	C341.259125,519.464172 358.971436,518.334167 376.627350,516.852295 
	C384.549103,516.187378 392.339355,513.930359 400.177979,512.340210 
	C400.967194,512.180115 401.694153,511.663147 402.422668,511.262115 
	C406.680969,508.917877 410.959595,506.607697 415.157715,504.159821 
	C415.917267,503.716919 416.335205,502.688263 417.194946,501.555817 
	C410.678802,495.872986 403.763428,491.769684 395.197723,491.014404 
	C392.066376,490.738312 388.889923,490.830231 385.789185,490.377167 
	C376.504120,489.020538 367.292725,486.852112 357.966492,486.159607 
	C345.227295,485.213623 332.410522,485.186798 319.623840,485.039246 
	C304.966003,484.870026 290.304688,485.000000 274.680603,485.000000 
z"/>
<path fill="#59D5EA" opacity="1.000000" stroke="none" 
	d="
M295.993469,419.968323 
	C279.397552,420.017792 263.116913,417.142303 247.424088,412.339935 
	C229.034164,406.712280 211.152649,399.422424 193.059814,392.828308 
	C192.470200,392.613434 191.980972,392.123077 190.949249,391.426361 
	C202.084457,369.632660 213.178757,347.919006 224.756073,326.290039 
	C229.556686,331.389801 233.876007,336.403320 238.191299,341.420349 
	C241.383713,345.131897 245.643524,348.382294 247.506134,352.672455 
	C250.221970,358.927795 254.271713,363.801239 258.747925,368.629852 
	C261.312256,371.396088 263.568573,374.471771 265.765839,377.549316 
	C270.241150,383.817596 274.615204,390.159088 278.970184,396.512085 
	C283.562653,403.211487 288.084198,409.959412 292.636749,416.686157 
	C292.487335,416.726440 292.337921,416.766724 292.188507,416.807007 
	C293.456818,417.860779 294.725159,418.914551 295.993469,419.968323 
z"/>
<path fill="#F6F6F6" opacity="1.000000" stroke="none" 
	d="
M275.162750,485.000000 
	C290.304688,485.000000 304.966003,484.870026 319.623840,485.039246 
	C332.410522,485.186798 345.227295,485.213623 357.966492,486.159607 
	C367.292725,486.852112 376.504120,489.020538 385.789185,490.377167 
	C388.889923,490.830231 392.066376,490.738312 395.197723,491.014404 
	C403.763428,491.769684 410.678802,495.872986 417.194946,501.555817 
	C416.335205,502.688263 415.917267,503.716919 415.157715,504.159821 
	C410.959595,506.607697 406.680969,508.917877 402.422668,511.262115 
	C401.694153,511.663147 400.967194,512.180115 400.177979,512.340210 
	C392.339355,513.930359 384.549103,516.187378 376.627350,516.852295 
	C358.971436,518.334167 341.259125,519.464172 323.549225,519.898071 
	C303.157013,520.397583 282.735992,520.295654 262.340912,519.846130 
	C252.804443,519.635864 243.306702,517.913574 233.774673,517.064453 
	C231.683777,516.878174 229.508575,517.762329 227.396088,517.660034 
	C225.213623,517.554504 223.034180,516.945801 220.900955,516.378418 
	C218.386063,515.709595 215.965103,514.643921 213.427536,514.112915 
	C207.614227,512.896484 201.707626,512.097168 195.938446,510.713440 
	C193.778717,510.195435 191.871704,508.564148 189.895142,507.365143 
	C188.779694,506.688507 187.801666,505.783875 186.681320,505.117096 
	C185.290359,504.289337 183.816193,503.601318 182.377960,502.852966 
	C183.748856,502.212433 185.147598,501.624542 186.483414,500.917725 
	C188.084259,500.070679 189.885666,499.388397 191.158936,498.172607 
	C197.606598,492.016022 206.117264,491.552460 214.086746,490.173279 
	C220.895828,488.994904 227.983170,489.531982 234.913620,488.924377 
	C248.181992,487.761139 261.426300,486.323669 275.162750,485.000000 
M269.512207,511.999908 
	C274.082672,512.017700 278.667358,511.808929 283.221008,512.094604 
	C298.403534,513.047241 313.496765,514.218140 328.690308,511.221283 
	C339.538544,509.081512 350.672729,508.407959 361.659851,506.934998 
	C363.096985,506.742340 365.558014,505.707550 365.571625,505.023590 
	C365.607269,503.231079 365.008759,500.973755 363.805725,499.732727 
	C362.535492,498.422424 360.338806,497.684662 358.435089,497.367462 
	C347.074036,495.474426 335.720367,492.647339 324.289948,492.245209 
	C300.279510,491.400604 276.170471,491.063232 252.350510,495.236267 
	C248.074554,495.985382 243.990341,498.191437 240.044937,500.176666 
	C239.197327,500.603180 238.625015,503.919128 239.138153,504.309174 
	C241.584442,506.168671 244.292679,508.232208 247.195587,508.833435 
	C254.255615,510.295715 261.475098,510.988190 269.512207,511.999908 
z"/>
<path fill="#0799A8" opacity="1.000000" stroke="none" 
	d="
M197.136566,195.060593 
	C197.182007,194.589478 197.227448,194.118347 197.754440,193.213882 
	C200.341827,188.148087 202.449966,183.516693 204.552704,178.882843 
	C206.041138,175.602707 207.522232,172.319229 209.006622,169.037262 
	C209.006622,169.037262 208.990646,169.002609 209.365051,168.959106 
	C210.337509,167.822159 210.935547,166.728729 211.533600,165.635284 
	C211.533600,165.635284 211.627396,165.716354 211.906708,165.665588 
	C212.288696,165.287781 212.391342,164.960724 212.494003,164.633667 
	C212.494003,164.633667 212.581680,164.613159 212.932892,164.612671 
	C216.167862,161.401077 219.051620,158.189957 221.935394,154.978851 
	C221.935394,154.978851 221.961517,154.957794 222.287918,154.936218 
	C222.959167,154.479462 223.304016,154.044281 223.648865,153.609116 
	C223.648865,153.609116 223.754410,153.698639 223.987488,153.669464 
	C224.399933,153.341049 224.579315,153.041809 224.758698,152.742569 
	C224.758698,152.742569 225.010666,152.832596 225.217743,152.763489 
	C226.131912,151.977005 226.838989,151.259628 227.546082,150.542267 
	C227.546066,150.542252 227.638214,150.529083 227.977142,150.666534 
	C228.909225,151.236069 229.502380,151.668152 229.923859,152.409882 
	C225.143936,159.190689 224.716064,166.406525 226.816742,173.663956 
	C230.735947,187.204086 240.298813,196.568008 250.854218,205.212067 
	C250.497528,206.555267 250.293793,207.616959 250.147324,208.686508 
	C249.904556,210.459198 250.363647,212.916885 249.362885,213.895676 
	C244.858612,218.300949 243.399063,225.217133 237.079803,228.165192 
	C234.167648,229.523788 231.718536,231.895584 229.110062,233.874634 
	C228.019653,234.701935 226.348343,235.582672 226.169418,236.645798 
	C225.509888,240.564835 222.665619,241.733521 219.666351,243.393982 
	C216.986923,244.877350 214.278412,247.137756 212.778336,249.743561 
	C209.935287,254.682266 207.205872,255.463974 204.008102,250.627487 
	C201.437500,246.739563 199.392212,242.303101 198.072632,237.827332 
	C194.264709,224.911713 194.332458,211.828339 197.532379,198.738297 
	C197.807709,197.611954 197.287323,196.291092 197.136566,195.060593 
z"/>
<path fill="#40C4D6" opacity="1.000000" stroke="none" 
	d="
M324.423645,325.020416 
	C321.345093,323.250519 318.266571,321.480621 315.286713,319.204041 
	C316.952881,316.781952 318.430542,314.783661 320.106049,312.967926 
	C323.881683,308.876373 327.879089,304.984192 331.555084,300.807434 
	C335.437866,296.395782 338.248535,290.355988 343.015076,287.603546 
	C347.577698,284.968903 351.230652,281.724396 355.128326,278.474365 
	C358.483276,275.676880 362.247711,273.373077 365.795715,270.802185 
	C366.434357,270.339417 366.987610,269.698090 367.432281,269.039337 
	C368.985779,266.737762 370.474457,264.392395 371.987762,262.063690 
	C382.282349,268.357300 390.936798,276.396484 397.762878,286.957581 
	C396.713226,288.433075 395.798798,289.416595 394.699646,290.105347 
	C383.165985,297.332825 372.462158,305.411621 365.531982,317.551147 
	C365.019348,318.449188 363.812927,319.258362 362.783752,319.506561 
	C353.040405,321.856567 351.740051,331.352173 346.708160,337.812836 
	C339.568359,333.812042 332.738312,329.938080 325.908234,326.064087 
	C325.908234,326.064087 325.959473,326.013306 325.807983,325.757874 
	C325.245544,325.341797 324.834595,325.181122 324.423645,325.020416 
z"/>
<path fill="#1FABBC" opacity="1.000000" stroke="none" 
	d="
M287.045593,224.895309 
	C296.988373,228.647797 306.927338,232.410553 316.879639,236.137589 
	C317.931152,236.531372 319.061371,236.714981 320.289001,237.341370 
	C319.546936,238.539810 318.739746,239.482132 317.778076,240.224289 
	C316.476959,241.228424 315.087219,242.806671 313.683105,242.864380 
	C308.656647,243.070999 305.352417,246.496536 304.760468,250.227005 
	C303.882721,255.758255 299.777374,256.443420 296.455872,258.906128 
	C293.205963,261.315765 290.789917,264.849152 288.003876,267.885651 
	C286.703979,269.302460 285.618073,271.064514 284.047485,272.055695 
	C279.571930,274.880157 274.579742,276.444061 273.178986,283.016693 
	C271.968079,288.698547 269.960175,295.385284 261.370605,294.288910 
	C260.976257,294.238586 260.384369,295.736023 259.884491,296.512573 
	C249.672180,290.884979 239.459885,285.257385 229.384216,279.188049 
	C231.736465,277.131165 234.025681,275.605347 236.137329,273.864136 
	C237.229263,272.963745 238.115814,271.753387 238.902695,270.556519 
	C240.583801,267.999451 241.751404,264.966095 243.869308,262.878632 
	C245.572449,261.199982 248.670105,261.010742 250.603210,259.474030 
	C253.823669,256.913971 257.123810,254.169403 259.468567,250.851135 
	C264.514343,243.710419 273.965149,240.956207 277.449066,232.370468 
	C277.644470,231.888916 278.618408,231.252563 278.986298,231.381805 
	C285.229675,233.575470 285.676971,228.676590 287.045593,224.895309 
z"/>
<path fill="#17A4B4" opacity="1.000000" stroke="none" 
	d="
M286.837769,224.665070 
	C285.676971,228.676590 285.229675,233.575470 278.986298,231.381805 
	C278.618408,231.252563 277.644470,231.888916 277.449066,232.370468 
	C273.965149,240.956207 264.514343,243.710419 259.468567,250.851135 
	C257.123810,254.169403 253.823669,256.913971 250.603210,259.474030 
	C248.670105,261.010742 245.572449,261.199982 243.869308,262.878632 
	C241.751404,264.966095 240.583801,267.999451 238.902695,270.556519 
	C238.115814,271.753387 237.229263,272.963745 236.137329,273.864136 
	C234.025681,275.605347 231.736465,277.131165 229.202484,278.901550 
	C217.494354,271.202484 207.766403,261.702881 201.311493,249.371078 
	C192.320740,232.194580 191.548203,214.153793 196.942902,195.373764 
	C197.287323,196.291092 197.807709,197.611954 197.532379,198.738297 
	C194.332458,211.828339 194.264709,224.911713 198.072632,237.827332 
	C199.392212,242.303101 201.437500,246.739563 204.008102,250.627487 
	C207.205872,255.463974 209.935287,254.682266 212.778336,249.743561 
	C214.278412,247.137756 216.986923,244.877350 219.666351,243.393982 
	C222.665619,241.733521 225.509888,240.564835 226.169418,236.645798 
	C226.348343,235.582672 228.019653,234.701935 229.110062,233.874634 
	C231.718536,231.895584 234.167648,229.523788 237.079803,228.165192 
	C243.399063,225.217133 244.858612,218.300949 249.362885,213.895676 
	C250.363647,212.916885 249.904556,210.459198 250.147324,208.686508 
	C250.293793,207.616959 250.497528,206.555267 251.172287,205.337311 
	C252.880615,206.028992 254.024155,206.999130 255.314697,207.697693 
	C264.630554,212.740173 273.976166,217.727676 283.312347,222.732620 
	C284.418213,223.300018 285.524078,223.867416 286.837769,224.665070 
z"/>
<path fill="#59D5EA" opacity="1.000000" stroke="none" 
	d="
M407.452148,305.898743 
	C408.594208,310.524170 410.485321,315.106140 410.756317,319.782043 
	C412.468445,349.322296 404.156708,375.262177 381.638550,395.419434 
	C376.251495,400.241638 369.660431,403.718811 363.320801,407.483307 
	C364.035156,405.782196 365.051819,404.412384 366.106232,402.753174 
	C366.138885,402.269318 366.133789,402.074860 366.171570,401.721649 
	C366.214386,401.562927 366.293365,401.243744 366.627563,401.163330 
	C368.640198,398.387817 370.318634,395.692719 372.160156,392.639221 
	C374.409943,385.600555 374.958679,378.810394 372.187531,372.291168 
	C369.414337,365.767090 366.023163,359.505707 363.108643,352.837280 
	C363.970642,352.043793 365.052277,351.654572 365.218811,351.023712 
	C367.428741,342.652496 373.593109,337.947510 380.537842,333.753235 
	C381.707855,333.046570 382.761475,330.585785 382.441986,329.286255 
	C381.683044,326.199066 383.066193,324.980408 385.469696,324.010712 
	C388.232910,322.895782 391.146912,322.017212 393.669281,320.495361 
	C395.114166,319.623657 396.644104,317.782684 396.870697,316.197266 
	C397.768127,309.918427 400.956787,306.561890 407.452148,305.898743 
z"/>
<path fill="#0799A8" opacity="1.000000" stroke="none" 
	d="
M331.351105,132.825958 
	C354.581177,136.637314 377.029083,143.024109 398.331024,153.179077 
	C399.365540,153.672241 400.370239,154.227951 401.892853,155.015137 
	C397.465790,163.513657 393.293274,171.946030 388.716949,180.153275 
	C385.880035,185.241089 382.387543,189.960587 379.299652,194.914200 
	C378.815308,195.691177 378.918854,196.834625 378.236511,197.701965 
	C374.546448,194.098312 371.371490,190.600418 368.194214,187.104645 
	C364.761475,183.327744 361.047760,179.766113 357.957489,175.727341 
	C353.251465,169.576996 348.980896,163.093765 344.517090,156.757767 
	C341.507385,152.485748 338.339264,148.316589 335.513367,143.926743 
	C333.414307,140.665970 331.746613,137.126968 329.955933,133.676056 
	C329.938721,133.642944 330.865204,133.120148 331.351105,132.825958 
z"/>
<path fill="#49CBE0" opacity="1.000000" stroke="none" 
	d="
M296.370850,420.121277 
	C294.725159,418.914551 293.456818,417.860779 292.188507,416.807007 
	C292.337921,416.766724 292.487335,416.726440 292.636749,416.686157 
	C288.084198,409.959412 283.562653,403.211487 278.970184,396.512085 
	C274.615204,390.159088 270.241150,383.817596 265.765839,377.549316 
	C263.568573,374.471771 261.312256,371.396088 258.747925,368.629852 
	C254.271713,363.801239 250.221970,358.927795 247.506134,352.672455 
	C245.643524,348.382294 241.383713,345.131897 238.191299,341.420349 
	C233.876007,336.403320 229.556686,331.389801 225.031845,326.084137 
	C225.542282,321.863678 226.984894,320.540955 231.262726,322.566040 
	C240.923843,327.139496 250.877792,331.094360 260.627899,335.834412 
	C261.199738,338.633362 261.352539,341.235535 262.601959,343.104675 
	C267.462433,350.375977 272.658386,357.423645 277.753143,364.537598 
	C284.280457,373.651886 290.855896,382.731781 297.361755,391.861328 
	C301.579529,397.780060 305.720306,403.753784 309.874969,409.717224 
	C311.742004,412.397095 313.558563,415.112122 315.559631,418.048279 
	C311.272919,418.950073 308.177429,419.601257 305.081970,420.252441 
	C302.304047,420.259705 299.526154,420.266968 296.370850,420.121277 
z"/>
<path fill="#59D5EA" opacity="1.000000" stroke="none" 
	d="
M283.208679,222.442520 
	C273.976166,217.727676 264.630554,212.740173 255.314697,207.697693 
	C254.024155,206.999130 252.880615,206.028992 251.350952,205.059326 
	C240.298813,196.568008 230.735947,187.204086 226.816742,173.663956 
	C224.716064,166.406525 225.143936,159.190689 230.196289,152.232773 
	C232.416428,150.094788 234.192505,148.443573 236.018005,147.141174 
	C240.294067,153.867004 246.814041,158.188034 250.010178,165.803131 
	C252.764145,172.364639 258.459137,177.734283 263.065552,183.460556 
	C266.043213,187.162109 269.371216,190.585541 272.598724,194.081451 
	C276.368713,198.164963 280.269623,202.149750 281.028107,208.043121 
	C281.028107,208.043121 280.996033,208.005341 280.792633,208.118362 
	C280.396393,208.500504 280.203522,208.769623 280.010681,209.038742 
	C280.010681,209.038742 280.003418,208.994934 279.659546,209.066589 
	C277.650085,211.595901 275.264374,213.981247 278.532806,216.934341 
	C278.637970,217.124176 278.743103,217.314026 278.959625,218.111511 
	C279.433258,219.139282 279.795502,219.559387 280.157715,219.979492 
	C281.140167,220.703812 282.122620,221.428116 283.208679,222.442520 
z"/>
<path fill="#31B8CA" opacity="1.000000" stroke="none" 
	d="
M303.962952,314.144348 
	C295.477631,310.930084 286.992340,307.715790 278.253845,303.843506 
	C278.180420,301.002563 277.323578,298.153687 281.068726,298.196320 
	C287.253662,298.266785 289.182587,296.824829 291.041595,291.228210 
	C291.581970,289.601440 292.571045,287.252136 293.834320,286.884949 
	C299.941132,285.109924 301.174133,279.033020 304.897339,275.217468 
	C305.571747,274.526337 306.186066,273.753662 306.945984,273.172791 
	C310.838165,270.197723 314.930634,267.462769 318.651733,264.290375 
	C325.849304,258.154144 330.792755,248.791855 341.947540,248.421265 
	C342.637360,248.398361 343.300079,247.560303 343.975403,247.101486 
	C348.763947,249.350784 353.552490,251.600098 358.500122,254.311707 
	C357.016754,255.850861 355.355347,256.900177 353.736755,258.011841 
	C351.849548,259.307953 349.622223,260.345001 348.208221,262.047455 
	C344.716736,266.251129 341.933716,270.653351 335.946381,272.454163 
	C331.626434,273.753479 326.763031,276.082306 326.695740,282.627289 
	C326.677155,284.437897 323.304749,286.267456 321.382172,287.989075 
	C319.685944,289.507965 316.767670,290.608582 316.315002,292.384796 
	C315.153992,296.940338 312.983185,299.508942 308.258087,300.254456 
	C307.050049,300.445007 305.412415,302.117828 305.158539,303.353455 
	C304.433228,306.883270 304.318085,310.538483 303.962952,314.144348 
z"/>
<path fill="#2AB2C3" opacity="1.000000" stroke="none" 
	d="
M343.615601,247.010193 
	C343.300079,247.560303 342.637360,248.398361 341.947540,248.421265 
	C330.792755,248.791855 325.849304,258.154144 318.651733,264.290375 
	C314.930634,267.462769 310.838165,270.197723 306.945984,273.172791 
	C306.186066,273.753662 305.571747,274.526337 304.897339,275.217468 
	C301.174133,279.033020 299.941132,285.109924 293.834320,286.884949 
	C292.571045,287.252136 291.581970,289.601440 291.041595,291.228210 
	C289.182587,296.824829 287.253662,298.266785 281.068726,298.196320 
	C277.323578,298.153687 278.180420,301.002563 277.999908,303.595825 
	C272.126251,301.647430 266.253357,299.288757 260.132446,296.721313 
	C260.384369,295.736023 260.976257,294.238586 261.370605,294.288910 
	C269.960175,295.385284 271.968079,288.698547 273.178986,283.016693 
	C274.579742,276.444061 279.571930,274.880157 284.047485,272.055695 
	C285.618073,271.064514 286.703979,269.302460 288.003876,267.885651 
	C290.789917,264.849152 293.205963,261.315765 296.455872,258.906128 
	C299.777374,256.443420 303.882721,255.758255 304.760468,250.227005 
	C305.352417,246.496536 308.656647,243.070999 313.683105,242.864380 
	C315.087219,242.806671 316.476959,241.228424 317.778076,240.224289 
	C318.739746,239.482132 319.546936,238.539810 320.669525,237.455444 
	C328.362671,240.455780 335.809235,243.687347 343.615601,247.010193 
z"/>
<path fill="#49CBE0" opacity="1.000000" stroke="none" 
	d="
M407.373535,305.512604 
	C400.956787,306.561890 397.768127,309.918427 396.870697,316.197266 
	C396.644104,317.782684 395.114166,319.623657 393.669281,320.495361 
	C391.146912,322.017212 388.232910,322.895782 385.469696,324.010712 
	C383.066193,324.980408 381.683044,326.199066 382.441986,329.286255 
	C382.761475,330.585785 381.707855,333.046570 380.537842,333.753235 
	C373.593109,337.947510 367.428741,342.652496 365.218811,351.023712 
	C365.052277,351.654572 363.970642,352.043793 362.821289,352.658203 
	C357.224762,347.827240 352.121307,342.883453 347.017883,337.939667 
	C351.740051,331.352173 353.040405,321.856567 362.783752,319.506561 
	C363.812927,319.258362 365.019348,318.449188 365.531982,317.551147 
	C372.462158,305.411621 383.165985,297.332825 394.699646,290.105347 
	C395.798798,289.416595 396.713226,288.433075 397.869080,287.280426 
	C401.114807,293.025146 404.204834,299.075806 407.373535,305.512604 
z"/>
<path fill="#40C4D6" opacity="1.000000" stroke="none" 
	d="
M305.480530,420.421265 
	C308.177429,419.601257 311.272919,418.950073 315.559631,418.048279 
	C313.558563,415.112122 311.742004,412.397095 309.874969,409.717224 
	C305.720306,403.753784 301.579529,397.780060 297.361755,391.861328 
	C290.855896,382.731781 284.280457,373.651886 277.753143,364.537598 
	C272.658386,357.423645 267.462433,350.375977 262.601959,343.104675 
	C261.352539,341.235535 261.199738,338.633362 260.823792,336.147339 
	C266.225464,337.326599 271.346527,338.726410 276.792847,340.725525 
	C278.170624,341.374054 279.223206,341.423279 280.275757,341.472534 
	C280.667267,341.529846 281.058807,341.587128 281.842163,342.072021 
	C283.597809,345.634430 284.518799,349.072418 286.415192,351.842590 
	C290.693848,358.092590 295.501587,363.977814 300.009735,370.073853 
	C308.792877,381.950531 317.590942,393.817566 326.222229,405.804260 
	C328.759491,409.327881 330.756256,413.240723 332.763062,416.992767 
	C332.383331,417.362640 332.241272,417.714935 332.099213,418.067230 
	C327.335510,418.741180 322.571777,419.415131 316.955414,420.024353 
	C313.832245,420.077148 311.561737,420.194702 309.291229,420.312256 
	C308.153839,420.404877 307.016449,420.497467 305.480530,420.421265 
z"/>
<path fill="#49CBE0" opacity="1.000000" stroke="none" 
	d="
M281.364380,207.900009 
	C280.269623,202.149750 276.368713,198.164963 272.598724,194.081451 
	C269.371216,190.585541 266.043213,187.162109 263.065552,183.460556 
	C258.459137,177.734283 252.764145,172.364639 250.010178,165.803131 
	C246.814041,158.188034 240.294067,153.867004 236.140594,146.904572 
	C236.471115,145.850861 236.728500,145.382568 236.985870,144.914291 
	C236.985870,144.914291 236.993011,144.984695 237.294296,144.937592 
	C238.738327,144.230499 239.881088,143.570496 241.023849,142.910492 
	C241.023849,142.910492 241.019333,143.014923 241.247162,142.835938 
	C242.964493,141.908813 244.454010,141.160690 245.943512,140.412567 
	C246.729568,139.951309 247.515625,139.490067 248.840637,139.371307 
	C252.833603,141.988937 257.132843,143.592148 259.578674,146.668747 
	C266.172791,154.963501 271.731750,164.073349 278.165009,172.506119 
	C284.356110,180.621429 291.165375,188.263245 297.613312,196.186066 
	C299.003540,197.894302 300.010101,199.914780 301.333008,202.012802 
	C298.033569,202.882889 295.445404,203.565414 292.857239,204.247940 
	C289.138397,205.417587 285.419525,206.587250 281.364380,207.900009 
z"/>
<path fill="#2AB2C3" opacity="1.000000" stroke="none" 
	d="
M265.189270,134.036530 
	C282.040833,129.973770 299.046997,128.499390 316.153931,131.492279 
	C315.028137,132.044830 314.037994,132.089691 312.585388,132.092712 
	C307.497803,132.050873 302.872711,132.050873 297.695923,132.050873 
	C298.572449,133.059692 299.165009,133.740173 299.755951,134.422073 
	C302.416931,137.492645 305.453552,140.319336 307.645691,143.694458 
	C310.576233,148.206421 312.931519,153.103012 315.389862,157.908096 
	C319.126984,165.212585 329.441650,167.809433 329.534851,177.715088 
	C329.537170,177.961639 329.959961,178.198502 330.175293,178.449585 
	C334.649841,183.666641 339.159515,188.854156 343.586029,194.111694 
	C348.334167,199.751236 352.932770,205.517960 357.740906,211.105042 
	C359.799408,213.497070 362.305603,215.499527 364.437592,217.834930 
	C365.240265,218.714203 365.559875,220.034470 366.099701,221.153717 
	C366.099701,221.153717 366.061615,221.075043 365.870270,221.134491 
	C365.371155,221.338837 365.152954,221.568741 365.024384,221.883636 
	C364.853363,221.924683 364.682312,221.965729 364.166260,221.815735 
	C363.554565,221.714294 363.287903,221.803894 363.021210,221.893494 
	C351.862335,218.098907 340.703491,214.304337 329.500854,210.070160 
	C333.101044,210.330261 336.744934,211.029984 341.693939,211.980301 
	C340.574280,208.870773 340.266663,206.319870 338.919128,204.569641 
	C333.282715,197.249023 327.229218,190.251022 321.525726,182.980148 
	C313.780487,173.106476 305.851868,163.343689 298.707306,153.044006 
	C294.298248,146.687805 291.201904,139.421021 287.266876,132.099091 
	C283.328583,132.656830 278.661804,133.317734 273.604553,133.983490 
	C270.843018,134.013992 268.471954,134.039627 265.874146,134.021393 
	C265.647400,133.977524 265.189270,134.036530 265.189270,134.036530 
z"/>
<path fill="#38BED0" opacity="1.000000" stroke="none" 
	d="
M304.189697,314.398590 
	C304.318085,310.538483 304.433228,306.883270 305.158539,303.353455 
	C305.412415,302.117828 307.050049,300.445007 308.258087,300.254456 
	C312.983185,299.508942 315.153992,296.940338 316.315002,292.384796 
	C316.767670,290.608582 319.685944,289.507965 321.382172,287.989075 
	C323.304749,286.267456 326.677155,284.437897 326.695740,282.627289 
	C326.763031,276.082306 331.626434,273.753479 335.946381,272.454163 
	C341.933716,270.653351 344.716736,266.251129 348.208221,262.047455 
	C349.622223,260.345001 351.849548,259.307953 353.736755,258.011841 
	C355.355347,256.900177 357.016754,255.850861 358.813782,254.457123 
	C363.167114,256.605835 367.365845,259.071442 371.776184,261.800354 
	C370.474457,264.392395 368.985779,266.737762 367.432281,269.039337 
	C366.987610,269.698090 366.434357,270.339417 365.795715,270.802185 
	C362.247711,273.373077 358.483276,275.676880 355.128326,278.474365 
	C351.230652,281.724396 347.577698,284.968903 343.015076,287.603546 
	C338.248535,290.355988 335.437866,296.395782 331.555084,300.807434 
	C327.879089,304.984192 323.881683,308.876373 320.106049,312.967926 
	C318.430542,314.783661 316.952881,316.781952 315.088501,318.927490 
	C311.333252,317.656006 307.874878,316.154419 304.189697,314.398590 
z"/>
<path fill="#17A4B4" opacity="1.000000" stroke="none" 
	d="
M313.047882,132.134567 
	C314.037994,132.089691 315.028137,132.044830 316.239136,131.883026 
	C321.200134,131.962128 325.940247,132.158173 331.015717,132.590088 
	C330.865204,133.120148 329.938721,133.642944 329.955933,133.676056 
	C331.746613,137.126968 333.414307,140.665970 335.513367,143.926743 
	C338.339264,148.316589 341.507385,152.485748 344.517090,156.757767 
	C348.980896,163.093765 353.251465,169.576996 357.957489,175.727341 
	C361.047760,179.766113 364.761475,183.327744 368.194214,187.104645 
	C371.371490,190.600418 374.546448,194.098312 377.906647,197.889603 
	C376.459595,201.916183 374.828369,205.648453 372.688049,209.508011 
	C368.460724,208.120209 365.652710,206.028641 363.314056,202.318298 
	C359.816101,196.768692 354.966095,192.052582 350.539185,187.118286 
	C349.157043,185.577744 346.085083,184.668076 345.843018,183.143188 
	C344.797882,176.559875 339.712952,172.679565 336.301025,167.773499 
	C331.166290,160.390076 325.681793,153.189301 319.726532,146.459015 
	C315.948273,142.189056 313.916077,137.542450 313.047882,132.134567 
z"/>
<path fill="#1FABBC" opacity="1.000000" stroke="none" 
	d="
M312.585388,132.092712 
	C313.916077,137.542450 315.948273,142.189056 319.726532,146.459015 
	C325.681793,153.189301 331.166290,160.390076 336.301025,167.773499 
	C339.712952,172.679565 344.797882,176.559875 345.843018,183.143188 
	C346.085083,184.668076 349.157043,185.577744 350.539185,187.118286 
	C354.966095,192.052582 359.816101,196.768692 363.314056,202.318298 
	C365.652710,206.028641 368.460724,208.120209 372.479675,209.788330 
	C370.773102,213.614136 368.765778,217.286911 366.429077,221.056702 
	C365.559875,220.034470 365.240265,218.714203 364.437592,217.834930 
	C362.305603,215.499527 359.799408,213.497070 357.740906,211.105042 
	C352.932770,205.517960 348.334167,199.751236 343.586029,194.111694 
	C339.159515,188.854156 334.649841,183.666641 330.175293,178.449585 
	C329.959961,178.198502 329.537170,177.961639 329.534851,177.715088 
	C329.441650,167.809433 319.126984,165.212585 315.389862,157.908096 
	C312.931519,153.103012 310.576233,148.206421 307.645691,143.694458 
	C305.453552,140.319336 302.416931,137.492645 299.755951,134.422073 
	C299.165009,133.740173 298.572449,133.059692 297.695923,132.050873 
	C302.872711,132.050873 307.497803,132.050873 312.585388,132.092712 
z"/>
<path fill="#31B8CA" opacity="1.000000" stroke="none" 
	d="
M273.995026,133.978638 
	C278.661804,133.317734 283.328583,132.656830 287.266876,132.099091 
	C291.201904,139.421021 294.298248,146.687805 298.707306,153.044006 
	C305.851868,163.343689 313.780487,173.106476 321.525726,182.980148 
	C327.229218,190.251022 333.282715,197.249023 338.919128,204.569641 
	C340.266663,206.319870 340.574280,208.870773 341.693939,211.980301 
	C336.744934,211.029984 333.101044,210.330261 329.214294,209.844116 
	C327.766785,209.957520 326.562103,209.857330 325.166565,209.014771 
	C325.573090,203.871201 324.220001,200.540619 320.931732,197.217209 
	C314.594360,190.812119 308.072937,184.296387 303.208191,176.800842 
	C297.078430,167.356186 292.377228,157.008759 282.152283,150.987854 
	C281.875916,150.825134 281.569305,150.591751 281.442352,150.315292 
	C278.945221,144.876480 276.472626,139.426407 273.995026,133.978638 
z"/>
<path fill="#17A4B4" opacity="1.000000" stroke="none" 
	d="
M346.708160,337.812836 
	C352.121307,342.883453 357.224762,347.827240 362.615540,352.950104 
	C366.023163,359.505707 369.414337,365.767090 372.187531,372.291168 
	C374.958679,378.810394 374.409943,385.600555 371.886597,392.450500 
	C365.149384,384.820679 359.092377,376.807434 352.484344,369.277771 
	C344.856110,360.585663 343.543396,347.390350 331.826416,341.529419 
	C330.830963,341.791962 329.311951,342.192596 327.792969,342.593262 
	C332.027893,334.899719 331.804413,332.827240 325.995544,326.399475 
	C332.738312,329.938080 339.568359,333.812042 346.708160,337.812836 
z"/>
<path fill="#38BED0" opacity="1.000000" stroke="none" 
	d="
M333.000732,416.975189 
	C330.756256,413.240723 328.759491,409.327881 326.222229,405.804260 
	C317.590942,393.817566 308.792877,381.950531 300.009735,370.073853 
	C295.501587,363.977814 290.693848,358.092590 286.415192,351.842590 
	C284.518799,349.072418 283.597809,345.634430 282.104126,342.217834 
	C284.082794,342.600464 286.191345,343.264923 288.896606,344.285461 
	C292.002991,345.418488 294.500122,346.785736 297.025208,346.839478 
	C301.222687,346.928833 301.896667,349.160278 302.075134,352.568085 
	C302.172333,354.423859 302.640167,356.523041 303.662750,358.018951 
	C306.891815,362.742462 310.500671,367.204285 313.892181,371.819092 
	C324.014679,385.592499 334.103668,399.390564 344.677124,413.822418 
	C341.036926,414.805328 337.018829,415.890259 333.000732,416.975189 
z"/>
<path fill="#31B8CA" opacity="1.000000" stroke="none" 
	d="
M332.763062,416.992767 
	C337.018829,415.890259 341.036926,414.805328 344.677124,413.822418 
	C334.103668,399.390564 324.014679,385.592499 313.892181,371.819092 
	C310.500671,367.204285 306.891815,362.742462 303.662750,358.018951 
	C302.640167,356.523041 302.172333,354.423859 302.075134,352.568085 
	C301.896667,349.160278 301.222687,346.928833 297.025208,346.839478 
	C294.500122,346.785736 292.002991,345.418488 289.261444,344.365906 
	C295.268036,344.742737 301.496582,345.528534 307.748962,345.994659 
	C311.166321,346.249451 314.623993,345.963348 318.526093,346.206970 
	C318.988678,346.492767 318.980133,346.963684 318.600342,346.976257 
	C313.245270,348.230560 312.264496,349.831055 314.344666,352.871002 
	C319.150604,359.894440 323.613953,367.160431 328.598541,374.051544 
	C334.911224,382.778748 341.777374,391.106873 348.048676,399.862213 
	C350.689331,403.548859 356.434631,406.322601 353.083282,412.507019 
	C346.362579,414.377747 339.641907,416.248474 332.510193,418.093201 
	C332.241272,417.714935 332.383331,417.362640 332.763062,416.992767 
z"/>
<path fill="#38BED0" opacity="1.000000" stroke="none" 
	d="
M273.604553,133.983490 
	C276.472626,139.426407 278.945221,144.876480 281.442352,150.315292 
	C281.569305,150.591751 281.875916,150.825134 282.152283,150.987854 
	C292.377228,157.008759 297.078430,167.356186 303.208191,176.800842 
	C308.072937,184.296387 314.594360,190.812119 320.931732,197.217209 
	C324.220001,200.540619 325.573090,203.871201 324.954407,208.718857 
	C319.889282,208.117722 314.845551,207.070099 309.453186,205.570465 
	C308.726318,202.887482 308.862000,200.377640 307.840790,198.495514 
	C306.539703,196.097549 304.171814,194.306351 302.490723,192.082062 
	C292.123047,178.364090 281.834808,164.586136 271.486023,150.853806 
	C267.728333,145.867508 264.512024,140.747757 266.100891,134.065262 
	C268.471954,134.039627 270.843018,134.013992 273.604553,133.983490 
z"/>
<path fill="#1FABBC" opacity="1.000000" stroke="none" 
	d="
M318.980133,346.963684 
	C318.980133,346.963684 318.988678,346.492767 318.991455,346.257324 
	C320.103088,345.738953 321.211975,345.456055 322.778564,345.287567 
	C323.482849,345.243927 323.729462,345.085846 323.976074,344.927795 
	C323.976074,344.927795 323.986420,344.996674 324.269226,344.960388 
	C325.025909,344.579803 325.499817,344.235535 325.973724,343.891266 
	C325.973724,343.891266 325.971924,343.969543 326.260803,343.942566 
	C326.986633,343.515137 327.423584,343.114746 327.860504,342.714355 
	C327.860504,342.714325 327.815552,342.660492 327.804260,342.626892 
	C329.311951,342.192596 330.830963,341.791962 331.826416,341.529419 
	C343.543396,347.390350 344.856110,360.585663 352.484344,369.277771 
	C359.092377,376.807434 365.149384,384.820679 371.723511,392.808899 
	C370.318634,395.692719 368.640198,398.387817 366.269592,400.974304 
	C362.748810,398.939117 358.108582,399.936920 356.953827,395.194000 
	C356.480530,393.249969 355.366028,391.346710 354.150604,389.717896 
	C347.547302,380.868744 340.677277,372.215851 334.187561,363.285706 
	C329.763702,357.198242 325.589996,350.973419 318.980133,346.963684 
z"/>
<path fill="#2AB2C3" opacity="1.000000" stroke="none" 
	d="
M318.600342,346.976257 
	C325.589996,350.973419 329.763702,357.198242 334.187561,363.285706 
	C340.677277,372.215851 347.547302,380.868744 354.150604,389.717896 
	C355.366028,391.346710 356.480530,393.249969 356.953827,395.194000 
	C358.108582,399.936920 362.748810,398.939117 365.935394,401.054718 
	C366.293365,401.243744 366.214386,401.562927 365.982330,401.832611 
	C365.667786,402.218536 365.491211,402.401855 365.518341,402.439941 
	C365.675049,402.659821 365.879883,402.845367 366.068451,403.042542 
	C365.051819,404.412384 364.035156,405.782196 362.970215,407.466248 
	C362.921906,407.780457 362.872406,407.889709 362.654236,407.917267 
	C362.228943,408.029938 362.066895,408.167938 361.949860,408.358826 
	C359.241638,409.677277 356.533447,410.995789 353.454285,412.410645 
	C356.434631,406.322601 350.689331,403.548859 348.048676,399.862213 
	C341.777374,391.106873 334.911224,382.778748 328.598541,374.051544 
	C323.613953,367.160431 319.150604,359.894440 314.344666,352.871002 
	C312.264496,349.831055 313.245270,348.230560 318.600342,346.976257 
z"/>
<path fill="#40C4D6" opacity="1.000000" stroke="none" 
	d="
M265.874146,134.021393 
	C264.512024,140.747757 267.728333,145.867508 271.486023,150.853806 
	C281.834808,164.586136 292.123047,178.364090 302.490723,192.082062 
	C304.171814,194.306351 306.539703,196.097549 307.840790,198.495514 
	C308.862000,200.377640 308.726318,202.887482 309.057526,205.480225 
	C307.253143,205.589920 305.495758,205.337845 303.224304,204.787399 
	C302.164215,204.553040 301.618256,204.617050 301.072266,204.681046 
	C298.607025,204.583740 296.141754,204.486450 293.266876,204.318542 
	C295.445404,203.565414 298.033569,202.882889 301.333008,202.012802 
	C300.010101,199.914780 299.003540,197.894302 297.613312,196.186066 
	C291.165375,188.263245 284.356110,180.621429 278.165009,172.506119 
	C271.731750,164.073349 266.172791,154.963501 259.578674,146.668747 
	C257.132843,143.592148 252.833603,141.988937 249.199844,139.403839 
	C254.135132,137.377365 259.250183,135.660843 264.777252,133.990417 
	C265.189270,134.036530 265.647400,133.977524 265.874146,134.021393 
z"/>
<path fill="#17A4B4" opacity="1.000000" stroke="none" 
	d="
M208.716431,169.201462 
	C207.522232,172.319229 206.041138,175.602707 204.552704,178.882843 
	C202.449966,183.516693 200.341827,188.148087 197.940063,192.908707 
	C201.238190,185.146469 204.832230,177.256073 208.716431,169.201462 
z"/>
<path fill="#17A4B4" opacity="1.000000" stroke="none" 
	d="
M236.609741,144.878723 
	C236.728500,145.382568 236.471115,145.850861 236.091156,146.555756 
	C234.192505,148.443573 232.416428,150.094788 230.367935,151.923126 
	C229.502380,151.668152 228.909225,151.236069 227.982239,150.620270 
	C230.510132,148.572083 233.371857,146.707611 236.609741,144.878723 
z"/>
<path fill="#17A4B4" opacity="1.000000" stroke="none" 
	d="
M221.616837,155.069519 
	C219.051620,158.189957 216.167862,161.401077 212.933533,164.567657 
	C215.488068,161.402145 218.393173,158.281174 221.616837,155.069519 
z"/>
<path fill="#49CBE0" opacity="1.000000" stroke="none" 
	d="
M278.571777,216.598755 
	C275.264374,213.981247 277.650085,211.595901 279.678284,209.078552 
	C279.564178,211.433624 279.087433,213.848389 278.571777,216.598755 
z"/>
<path fill="#49CBE0" opacity="1.000000" stroke="none" 
	d="
M309.656616,420.480621 
	C311.561737,420.194702 313.832245,420.077148 316.509644,419.965240 
	C314.618347,420.196899 312.320160,420.422943 309.656616,420.480621 
z"/>
<path fill="#17A4B4" opacity="1.000000" stroke="none" 
	d="
M211.267532,165.785583 
	C210.935547,166.728729 210.337509,167.822159 209.384094,168.958115 
	C209.686310,167.979050 210.343887,166.957474 211.267532,165.785583 
z"/>
<path fill="#17A4B4" opacity="1.000000" stroke="none" 
	d="
M245.617584,140.452545 
	C244.454010,141.160690 242.964493,141.908813 241.194916,142.837494 
	C242.373795,142.176193 243.832718,141.334351 245.617584,140.452545 
z"/>
<path fill="#17A4B4" opacity="1.000000" stroke="none" 
	d="
M240.663513,142.904602 
	C239.881088,143.570496 238.738327,144.230499 237.259644,144.930450 
	C238.050186,144.279831 239.176682,143.589264 240.663513,142.904602 
z"/>
<path fill="#38BED0" opacity="1.000000" stroke="none" 
	d="
M279.991028,341.301941 
	C279.223206,341.423279 278.170624,341.374054 277.115845,340.933838 
	C277.977844,340.739044 278.842072,340.935211 279.991028,341.301941 
z"/>
<path fill="#17A4B4" opacity="1.000000" stroke="none" 
	d="
M227.252167,150.629822 
	C226.838989,151.259628 226.131912,151.977005 225.087769,152.732819 
	C225.486542,152.086639 226.222397,151.402008 227.252167,150.629822 
z"/>
<path fill="#17A4B4" opacity="1.000000" stroke="none" 
	d="
M327.557953,342.744965 
	C327.423584,343.114746 326.986633,343.515137 326.224457,343.928040 
	C326.351288,343.552185 326.803345,343.163879 327.557953,342.744965 
z"/>
<path fill="#17A4B4" opacity="1.000000" stroke="none" 
	d="
M325.671143,343.915466 
	C325.499817,344.235535 325.025909,344.579803 324.239563,344.942139 
	C324.407562,344.619965 324.888031,344.279785 325.671143,343.915466 
z"/>
<path fill="#49CBE0" opacity="1.000000" stroke="none" 
	d="
M280.096191,219.697052 
	C279.795502,219.559387 279.433258,219.139282 279.018738,218.431610 
	C279.322510,218.567566 279.678589,218.991089 280.096191,219.697052 
z"/>
<path fill="#17A4B4" opacity="1.000000" stroke="none" 
	d="
M223.374573,153.674667 
	C223.304016,154.044281 222.959167,154.479462 222.300797,154.925476 
	C222.358276,154.537613 222.729279,154.138916 223.374573,153.674667 
z"/>
<path fill="#49CBE0" opacity="1.000000" stroke="none" 
	d="
M301.375916,204.800476 
	C301.618256,204.617050 302.164215,204.553040 302.843231,204.688812 
	C302.544006,204.899017 302.111786,204.909470 301.375916,204.800476 
z"/>
<path fill="#1FABBC" opacity="1.000000" stroke="none" 
	d="
M365.291138,221.901550 
	C365.152954,221.568741 365.371155,221.338837 365.913635,221.129059 
	C365.951538,221.349274 365.754730,221.634369 365.291138,221.901550 
z"/>
<path fill="#1FABBC" opacity="1.000000" stroke="none" 
	d="
M363.258301,221.999847 
	C363.287903,221.803894 363.554565,221.714294 363.904510,221.782349 
	C363.823608,221.995407 363.659485,222.050797 363.258301,221.999847 
z"/>
<path fill="#17A4B4" opacity="1.000000" stroke="none" 
	d="
M323.728424,344.915619 
	C323.729462,345.085846 323.482849,345.243927 323.131531,345.252625 
	C323.026825,345.103241 323.480774,344.903473 323.728424,344.915619 
z"/>
<path fill="#59D5EA" opacity="1.000000" stroke="none" 
	d="
M362.139343,408.421082 
	C362.066895,408.167938 362.228943,408.029938 362.594513,407.911804 
	C362.777222,408.196777 362.635864,408.398315 362.139343,408.421082 
z"/>
<path fill="#49CBE0" opacity="1.000000" stroke="none" 
	d="
M280.257385,208.955933 
	C280.203522,208.769623 280.396393,208.500504 280.816925,208.123169 
	C280.864441,208.300995 280.684265,208.587067 280.257385,208.955933 
z"/>
<path fill="#17A4B4" opacity="1.000000" stroke="none" 
	d="
M324.593994,325.317810 
	C324.834595,325.181122 325.245544,325.341797 325.823914,325.790253 
	C325.582367,325.923767 325.173340,325.769501 324.593994,325.317810 
z"/>
<path fill="#17A4B4" opacity="1.000000" stroke="none" 
	d="
M212.279114,164.720459 
	C212.391342,164.960724 212.288696,165.287781 211.897827,165.604248 
	C211.647186,165.265594 211.798721,165.003448 212.279114,164.720459 
z"/>
<path fill="#17A4B4" opacity="1.000000" stroke="none" 
	d="
M224.509399,152.793213 
	C224.579315,153.041809 224.399933,153.341049 223.940598,153.631866 
	C223.860458,153.363586 224.060272,153.103729 224.509399,152.793213 
z"/>
<path fill="#ECECEC" opacity="1.000000" stroke="none" 
	d="
M269.071289,511.995300 
	C261.475098,510.988190 254.255615,510.295715 247.195587,508.833435 
	C244.292679,508.232208 241.584442,506.168671 239.138153,504.309174 
	C238.625015,503.919128 239.197327,500.603180 240.044937,500.176666 
	C243.990341,498.191437 248.074554,495.985382 252.350510,495.236267 
	C276.170471,491.063232 300.279510,491.400604 324.289948,492.245209 
	C335.720367,492.647339 347.074036,495.474426 358.435089,497.367462 
	C360.338806,497.684662 362.535492,498.422424 363.805725,499.732727 
	C365.008759,500.973755 365.607269,503.231079 365.571625,505.023590 
	C365.558014,505.707550 363.096985,506.742340 361.659851,506.934998 
	C350.672729,508.407959 339.538544,509.081512 328.690308,511.221283 
	C313.496765,514.218140 298.403534,513.047241 283.221008,512.094604 
	C278.667358,511.808929 274.082672,512.017700 269.071289,511.995300 
z"/>
<path fill="#1FABBC" opacity="1.000000" stroke="none" 
	d="
M366.106232,402.753174 
	C365.879883,402.845367 365.675049,402.659821 365.518341,402.439941 
	C365.491211,402.401855 365.667786,402.218536 365.939514,401.991333 
	C366.133789,402.074860 366.138885,402.269318 366.106232,402.753174 
z"/>
</svg>